# This file uses centimeters as units for non-parametric coordinates.

mtllib wagon.mtl
g default
v -1.490616 -0.530376 -0.591640
v -0.921782 -0.530376 -0.591640
v 1.537405 -0.530376 -0.591640
v -1.490616 -0.527404 0.627443
v -0.842157 -0.527404 0.627443
v 1.537405 -0.527404 0.627443
v -1.490616 0.005074 0.625769
v -1.438598 -0.488225 0.627334
v -0.727718 -0.488225 0.627334
v 1.485387 -0.488225 0.627334
v 1.537405 0.255638 0.624976
v -1.438598 0.099034 0.625473
v -1.437245 -0.490727 -0.566955
v 1.484035 -0.490727 -0.566955
v 1.485387 0.099034 0.625473
v -1.437245 0.682967 -0.570655
v 1.484035 0.682967 -0.570655
v -1.438597 0.686292 0.623619
v -0.727719 0.686293 0.623625
v 1.485387 0.686292 0.623619
v -1.490616 0.725470 0.623492
v -0.727719 0.725470 0.623492
v 1.537404 0.725470 0.623492
v -1.490615 0.722498 -0.595591
v -0.536996 0.722498 -0.595591
v 1.537405 0.722498 -0.595591
v -1.490615 0.096061 -0.593621
v -1.001884 0.225039 -0.594027
v 1.537404 -0.060549 -0.593123
vt 0.375000 0.000000
vt 0.468750 0.000000
vt 0.625000 0.000000
vt 0.375000 0.250000
vt 0.481250 0.250000
vt 0.625000 0.250000
vt 0.375000 0.356250
vt 0.425000 0.300000
vt 0.500000 0.300000
vt 0.575000 0.300000
vt 0.625000 0.406250
vt 0.425000 0.375000
vt 0.475000 0.350000
vt 0.525000 0.350000
vt 0.575000 0.375000
vt 0.475000 0.400000
vt 0.525000 0.400000
vt 0.425000 0.450000
vt 0.500000 0.450000
vt 0.575000 0.450000
vt 0.375000 0.500000
vt 0.500000 0.500000
vt 0.625000 0.500000
vt 0.375000 0.750000
vt 0.531250 0.750000
vt 0.625000 0.750000
vt 0.375000 0.875000
vt 0.452865 0.846908
vt 0.625000 0.906250
vt 0.375000 1.000000
vt 0.468750 1.000000
vt 0.625000 1.000000
vt 0.875000 0.000000
vt 0.718750 0.000000
vt 0.875000 0.250000
vt 0.781250 0.250000
vt 0.125000 0.000000
vt 0.250000 0.000000
vt 0.125000 0.250000
vt 0.268750 0.250000
vn 0.000000 -0.999997 0.002438
vn 0.000000 -0.999997 0.002438
vn 0.000000 -0.999997 0.002438
vn 0.000000 -0.999997 0.002438
vn 0.000000 -0.999997 0.002438
vn 0.000000 -0.999997 0.002437
vn 0.000000 0.002799 0.999996
vn 0.635170 0.769068 0.071378
vn -0.000159 0.003010 0.999996
vn -0.000037 0.003166 0.999995
vn 0.000000 0.999541 0.030279
vn -0.255744 0.963976 0.073108
vn 0.000101 0.002935 0.999996
vn 0.000049 0.003159 0.999995
vn 0.999392 0.000109 0.034866
vn 0.268588 0.582374 0.767268
vn -0.257343 0.627334 0.735001
vn -0.999392 0.000111 0.034866
vn 0.268520 -0.577932 0.770643
vn -0.257283 -0.623136 0.738585
vn 0.634616 -0.767178 0.093283
vn 0.000000 -0.999667 0.025817
vn -0.256181 -0.964289 0.067225
vn -0.000031 0.003184 0.999995
vn 0.000000 0.003393 0.999994
vn 0.000014 0.003206 0.999995
vn 0.000000 0.999997 -0.002438
vn 0.000000 0.999997 -0.002438
vn 0.000000 0.999997 -0.002438
vn 0.000000 0.999997 -0.002438
vn 0.000000 0.999997 -0.002438
vn 0.000000 0.999997 -0.002438
vn 0.000002 -0.003146 -0.999995
vn 0.000001 -0.003154 -0.999995
vn -0.000001 -0.003144 -0.999995
vn -0.000000 -0.003155 -0.999995
vn 0.000000 -0.003151 -0.999995
vn 0.000000 -0.003154 -0.999995
vn 0.000001 -0.003160 -0.999995
vn 0.000000 -0.003162 -0.999995
vn 0.000000 -0.003158 -0.999995
vn 1.000000 0.000000 -0.000000
vn 1.000000 -0.000001 -0.000000
vn 1.000000 0.000000 -0.000000
vn 1.000000 0.000002 0.000001
vn 1.000000 0.000003 -0.000000
vn 1.000000 0.000001 -0.000001
vn -1.000000 -0.000001 -0.000000
vn -1.000000 0.000001 -0.000000
vn -1.000000 -0.000000 -0.000000
vn -1.000000 0.000000 -0.000000
vn -1.000000 0.000002 -0.000000
vn -1.000000 -0.000000 0.000000
s 1
g pCube1
usemtl initialShadingGroup
f 1/1/1 2/2/2 4/4/3
f 4/4/3 2/2/2 5/5/4
f 2/2/2 3/3/5 5/5/4
f 5/5/4 3/3/5 6/6/6
s 2
f 5/5/7 8/8/8 4/4/9
f 4/4/9 8/8/8 7/7/10
f 5/5/7 9/9/11 8/8/8
f 5/5/7 10/10/12 9/9/11
f 5/5/7 6/6/13 10/10/12
f 10/10/12 6/6/13 11/11/14
f 7/7/10 8/8/8 12/12/15
f 9/9/11 13/13/16 8/8/8
f 8/8/8 13/13/16 12/12/15
f 9/9/11 14/14/17 13/13/16
f 9/9/11 10/10/12 14/14/17
f 14/14/17 10/10/12 15/15/18
f 10/10/12 11/11/14 15/15/18
f 12/12/15 13/13/16 16/16/19
f 13/13/16 14/14/17 16/16/19
f 16/16/19 14/14/17 17/17/20
f 14/14/17 15/15/18 17/17/20
f 7/7/10 12/12/15 18/18/21
f 19/19/22 18/18/21 16/16/19
f 12/12/15 16/16/19 18/18/21
f 16/16/19 17/17/20 19/19/22
f 15/15/18 20/20/23 17/17/20
f 17/17/20 20/20/23 19/19/22
f 15/15/18 11/11/14 20/20/23
f 7/7/10 18/18/21 21/21/24
f 21/21/24 18/18/21 22/22/25
f 18/18/21 19/19/22 22/22/25
f 19/19/22 20/20/23 22/22/25
f 11/11/14 23/23/26 20/20/23
f 20/20/23 23/23/26 22/22/25
s 4
f 21/21/27 22/22/28 24/24/29
f 24/24/29 22/22/28 25/25/30
f 22/22/28 23/23/31 25/25/30
f 25/25/30 23/23/31 26/26/32
s 5
f 25/25/33 28/28/34 24/24/35
f 24/24/35 28/28/34 27/27/36
f 26/26/37 29/29/38 25/25/33
f 25/25/33 29/29/38 28/28/34
f 28/28/34 2/31/39 27/27/36
f 27/27/36 2/31/39 1/30/40
f 28/28/34 29/29/38 2/31/39
f 2/31/39 29/29/38 3/32/41
s 6
f 29/34/42 26/33/43 11/36/44
f 11/36/44 26/33/43 23/35/45
f 3/3/46 29/34/42 6/6/47
f 6/6/47 29/34/42 11/36/44
s 7
f 24/37/48 27/38/49 21/39/50
f 21/39/50 27/38/49 7/40/51
f 27/38/49 1/1/52 7/40/51
f 7/40/51 1/1/52 4/4/53
